<?xml version="1.0" standalone="no"?>
<!DOCTYPE svg PUBLIC "-//W3C//DTD SVG 1.1//EN" "http://www.w3.org/Graphics/SVG/1.1/DTD/svg11.dtd">
<svg xmlns="http://www.w3.org/2000/svg">
<metadata>Copyright (C) 2023 by original authors @ fontello.com</metadata>
<defs>
<font id="fontello" horiz-adv-x="1000" >
<font-face font-family="fontello" font-weight="400" font-stretch="normal" units-per-em="1000" ascent="850" descent="-150" />
<missing-glyph horiz-adv-x="1000" />
<glyph glyph-name="pvc-1" unicode="&#xe800;" d="M512 850a69 68 0 0 1-26-7l-359-171a69 68 0 0 1-37-46l-88-385a69 68 0 0 1 9-52 69 68 0 0 1 4-5l248-308a69 68 0 0 1 54-26l397 0a69 68 0 0 1 54 26l248 308a69 68 0 0 1 13 58l-89 384a69 68 0 0 1-37 46l-358 171a69 68 0 0 1-33 7z m0-26a65 64 0 0 0 31-7l340-162a65 64 0 0 0 35-43l84-365a65 64 0 0 0-13-54l-235-292a65 64 0 0 0-50-25l-377 0a65 64 0 0 0-51 25l-235 292a65 64 0 0 0-3 5 65 64 0 0 0-9 49l84 364a65 64 0 0 0 35 44l339 162a65 64 0 0 0 25 7z m268-387l0 0c0-36-119-64-265-64-146 0-264 28-264 64l0 0c0 35 118 64 264 64 146 0 265-29 265-64l0-174c0-35-119-64-265-64-146 0-264 29-264 64l0 174" horiz-adv-x="1031" />

<glyph glyph-name="c-role" unicode="&#xe801;" d="M512 850a69 68 0 0 1-26-7l-359-171a69 68 0 0 1-37-46l-88-385a69 68 0 0 1 9-52 69 68 0 0 1 4-5l248-308a69 68 0 0 1 54-26l397 0a69 68 0 0 1 54 26l248 308a69 68 0 0 1 13 58l-89 384a69 68 0 0 1-37 46l-358 171a69 68 0 0 1-33 7z m0-26a65 64 0 0 0 31-7l340-162a65 64 0 0 0 35-43l84-365a65 64 0 0 0-13-54l-235-292a65 64 0 0 0-50-25l-377 0a65 64 0 0 0-51 25l-235 292a65 64 0 0 0-3 5 65 64 0 0 0-9 49l84 364a65 64 0 0 0 35 44l339 162a65 64 0 0 0 25 7z m3-259l-177-78 0-117c0-109 75-211 177-235 102 24 178 126 178 235l0 117z m94-315l-188 0 0 158 27 0 0 17c0 37 31 68 68 68 38 0 68-31 68-68l0-17 25 0z m-95 217c-22 0-41-18-41-40l0-17 82 0 0 17c0 22-19 40-41 40z" horiz-adv-x="1031" />

<glyph glyph-name="cm" unicode="&#xe802;" d="M512 850a69 68 0 0 1-26-7l-359-171a69 68 0 0 1-37-46l-88-385a69 68 0 0 1 9-52 69 68 0 0 1 4-5l248-308a69 68 0 0 1 54-26l397 0a69 68 0 0 1 54 26l248 308a69 68 0 0 1 13 58l-89 384a69 68 0 0 1-37 46l-358 171a69 68 0 0 1-33 7z m0-26a65 64 0 0 0 31-7l340-162a65 64 0 0 0 35-43l84-365a65 64 0 0 0-13-54l-235-292a65 64 0 0 0-50-25l-377 0a65 64 0 0 0-51 25l-235 292a65 64 0 0 0-3 5 65 64 0 0 0-9 49l84 364a65 64 0 0 0 35 44l339 162a65 64 0 0 0 25 7z m-91-293l333 0m-477 0l83 0m38-120l83 0m61-121l212 0m-356 0l83 0m-60-121l333 0m-477 0l83 0" horiz-adv-x="1031" />

<glyph glyph-name="deploy" unicode="&#xe803;" d="M512 850a69 68 0 0 1-26-7l-359-171a69 68 0 0 1-37-46l-88-385a69 68 0 0 1 9-52 69 68 0 0 1 4-5l248-308a69 68 0 0 1 54-26l397 0a69 68 0 0 1 54 26l248 308a69 68 0 0 1 13 58l-89 384a69 68 0 0 1-37 46l-358 171a69 68 0 0 1-33 7z m0-26a65 64 0 0 0 31-7l340-162a65 64 0 0 0 35-43l84-365a65 64 0 0 0-13-54l-235-292a65 64 0 0 0-50-25l-377 0a65 64 0 0 0-51 25l-235 292a65 64 0 0 0-3 5 65 64 0 0 0-9 49l84 364a65 64 0 0 0 35 44l339 162a65 64 0 0 0 25 7z m-22-728l0 0c-139-6-258 101-265 241-8 139 99 258 238 267 140 8 260-98 269-238l-101-6c-5 84-78 148-162 143-84-5-148-77-144-161 4-84 76-149 160-145z m52 270l80-195 184 195z" horiz-adv-x="1031" />

<glyph glyph-name="ds" unicode="&#xe804;" d="M512 850a69 68 0 0 1-26-7l-359-171a69 68 0 0 1-37-46l-88-385a69 68 0 0 1 9-52 69 68 0 0 1 4-5l248-308a69 68 0 0 1 54-26l397 0a69 68 0 0 1 54 26l248 308a69 68 0 0 1 13 58l-89 384a69 68 0 0 1-37 46l-358 171a69 68 0 0 1-33 7z m0-26a65 64 0 0 0 31-7l340-162a65 64 0 0 0 35-43l84-365a65 64 0 0 0-13-54l-235-292a65 64 0 0 0-50-25l-377 0a65 64 0 0 0-51 25l-235 292a65 64 0 0 0-3 5 65 64 0 0 0-9 49l84 364a65 64 0 0 0 35 44l339 162a65 64 0 0 0 25 7z m-95-235l373 0 0-262-373 0z m-192-475l405 0m-389 314l373 0 0-262-373 0z m-2-1l373 0 0-262-373 0z" horiz-adv-x="1031" />

<glyph glyph-name="ing" unicode="&#xe805;" d="M512 850a69 68 0 0 1-26-7l-359-171a69 68 0 0 1-37-46l-88-385a69 68 0 0 1 9-52 69 68 0 0 1 4-5l248-308a69 68 0 0 1 54-26l397 0a69 68 0 0 1 54 26l248 308a69 68 0 0 1 13 58l-89 384a69 68 0 0 1-37 46l-358 171a69 68 0 0 1-33 7z m0-26a65 64 0 0 0 31-7l340-162a65 64 0 0 0 35-43l84-365a65 64 0 0 0-13-54l-235-292a65 64 0 0 0-50-25l-377 0a65 64 0 0 0-51 25l-235 292a65 64 0 0 0-3 5 65 64 0 0 0-9 49l84 364a65 64 0 0 0 35 44l339 162a65 64 0 0 0 25 7z m160-707l-129 0-282 352-81 0 0 115 132 0 282-352 78 0 0 92 179-149-179-149z m-141 272l63 79 78 0 0-91 179 148-179 149 0-91-129 0-84-104z m-206-78l-64-80-81 0 0-115 132 0 85 106z" horiz-adv-x="1031" />

<glyph glyph-name="job" unicode="&#xe806;" d="M512 850a69 68 0 0 1-26-7l-359-171a69 68 0 0 1-37-46l-88-385a69 68 0 0 1 9-52 69 68 0 0 1 4-5l248-308a69 68 0 0 1 54-26l397 0a69 68 0 0 1 54 26l248 308a69 68 0 0 1 13 58l-89 384a69 68 0 0 1-37 46l-358 171a69 68 0 0 1-33 7z m0-26a65 64 0 0 0 31-7l340-162a65 64 0 0 0 35-43l84-365a65 64 0 0 0-13-54l-235-292a65 64 0 0 0-50-25l-377 0a65 64 0 0 0-51 25l-235 292a65 64 0 0 0-3 5 65 64 0 0 0-9 49l84 364a65 64 0 0 0 35 44l339 162a65 64 0 0 0 25 7z" horiz-adv-x="1031" />

<glyph glyph-name="crb" unicode="&#xe807;" d="M512 850a69 68 0 0 1-26-7l-359-171a69 68 0 0 1-37-46l-88-385a69 68 0 0 1 9-52 69 68 0 0 1 4-5l248-308a69 68 0 0 1 54-26l397 0a69 68 0 0 1 54 26l248 308a69 68 0 0 1 13 58l-89 384a69 68 0 0 1-37 46l-358 171a69 68 0 0 1-33 7z m0-26a65 64 0 0 0 31-7l340-162a65 64 0 0 0 35-43l84-365a65 64 0 0 0-13-54l-235-292a65 64 0 0 0-50-25l-377 0a65 64 0 0 0-51 25l-235 292a65 64 0 0 0-3 5 65 64 0 0 0-9 49l84 364a65 64 0 0 0 35 44l339 162a65 64 0 0 0 25 7z m-175-474c0 38 30 68 68 68l88 0 0 42-88 0c-61 0-110-49-110-110 0-61 49-110 110-110l88 0 0 42-88 0c-38 0-68 30-68 68z m90-22l177 0 0 44-177 0z m199 132l-89 0 0-42 89 0c37 0 68-30 68-68 0-38-31-68-68-68l-89 0 0-42 89 0c61 0 110 49 110 110 0 61-49 110-110 110z" horiz-adv-x="1031" />

<glyph glyph-name="ep" unicode="&#xe808;" d="M512 850a69 68 0 0 1-26-7l-359-171a69 68 0 0 1-37-46l-88-385a69 68 0 0 1 9-52 69 68 0 0 1 4-5l248-308a69 68 0 0 1 54-26l397 0a69 68 0 0 1 54 26l248 308a69 68 0 0 1 13 58l-89 384a69 68 0 0 1-37 46l-358 171a69 68 0 0 1-33 7z m0-26a65 64 0 0 0 31-7l340-162a65 64 0 0 0 35-43l84-365a65 64 0 0 0-13-54l-235-292a65 64 0 0 0-50-25l-377 0a65 64 0 0 0-51 25l-235 292a65 64 0 0 0-3 5 65 64 0 0 0-9 49l84 364a65 64 0 0 0 35 44l339 162a65 64 0 0 0 25 7z m-307-589l167 0 0-116-167 0z m227 0l166 0 0-116-166 0z m227 0l166 0 0-116-166 0z m-275 346l263 0 0-116-263 0z m-107-309l15 57 15 56 42-41 41-41-56-15z m451 0l-15 57-15 56-41-41-41-41 56-15z m-219-21l29 50 30 50-58 1-59 0 29-51z" horiz-adv-x="1031" />

<glyph glyph-name="limits" unicode="&#xe809;" d="M512 850a69 68 0 0 1-26-7l-359-171a69 68 0 0 1-37-46l-88-385a69 68 0 0 1 9-52 69 68 0 0 1 4-5l248-308a69 68 0 0 1 54-26l397 0a69 68 0 0 1 54 26l248 308a69 68 0 0 1 13 58l-89 384a69 68 0 0 1-37 46l-358 171a69 68 0 0 1-33 7z m0-26a65 64 0 0 0 31-7l340-162a65 64 0 0 0 35-43l84-365a65 64 0 0 0-13-54l-235-292a65 64 0 0 0-50-25l-377 0a65 64 0 0 0-51 25l-235 292a65 64 0 0 0-3 5 65 64 0 0 0-9 49l84 364a65 64 0 0 0 35 44l339 162a65 64 0 0 0 25 7z" horiz-adv-x="1031" />

<glyph glyph-name="pod" unicode="&#xe80a;" d="M512 850a69 68 0 0 1-26-7l-359-171a69 68 0 0 1-37-46l-88-385a69 68 0 0 1 9-52 69 68 0 0 1 4-5l248-308a69 68 0 0 1 54-26l397 0a69 68 0 0 1 54 26l248 308a69 68 0 0 1 13 58l-89 384a69 68 0 0 1-37 46l-358 171a69 68 0 0 1-33 7z m0-26a65 64 0 0 0 31-7l340-162a65 64 0 0 0 35-43l84-365a65 64 0 0 0-13-54l-235-292a65 64 0 0 0-50-25l-377 0a65 64 0 0 0-51 25l-235 292a65 64 0 0 0-3 5 65 64 0 0 0-9 49l84 364a65 64 0 0 0 35 44l339 162a65 64 0 0 0 25 7z m-204-329l207 60 207-60-207-60z m0-23l0-220 193-107 1 269z m414 0l0-220-193-107 0 269z" horiz-adv-x="1031" />

<glyph glyph-name="psp" unicode="&#xe80b;" d="M512 850a69 68 0 0 1-26-7l-359-171a69 68 0 0 1-37-46l-88-385a69 68 0 0 1 9-52 69 68 0 0 1 4-5l248-308a69 68 0 0 1 54-26l397 0a69 68 0 0 1 54 26l248 308a69 68 0 0 1 13 58l-89 384a69 68 0 0 1-37 46l-358 171a69 68 0 0 1-33 7z m0-26a65 64 0 0 0 31-7l340-162a65 64 0 0 0 35-43l84-365a65 64 0 0 0-13-54l-235-292a65 64 0 0 0-50-25l-377 0a65 64 0 0 0-51 25l-235 292a65 64 0 0 0-3 5 65 64 0 0 0-9 49l84 364a65 64 0 0 0 35 44l339 162a65 64 0 0 0 25 7z m-60-187l-216-63 216-63 65 19c29 27 68 44 111 44 11 0 21-1 31-3l10 3z m-216-87l0-231 180-99 0 70c0 22 9 39 22 54l1 145z m253-54l-23-7 0-51c4 21 12 41 23 58z m139-61c-15 0-26-11-26-26l0-26 52 0 0 26c0 15-11 26-26 26z m0 104c-65 0-119-53-119-119l0-71c-26 0-47-22-47-48l0-190c0-26 21-47 47-47l238 0c26 0 48 21 48 47l0 190c0 26-22 48-48 48l0 71c0 66-53 119-119 119z m0-47c40 0 72-32 72-72l0-71-143 0 0 71c0 40 32 72 71 72z" horiz-adv-x="1031" />

<glyph glyph-name="rb" unicode="&#xe80c;" d="M512 850a69 68 0 0 1-26-7l-359-171a69 68 0 0 1-37-46l-88-385a69 68 0 0 1 9-52 69 68 0 0 1 4-5l248-308a69 68 0 0 1 54-26l397 0a69 68 0 0 1 54 26l248 308a69 68 0 0 1 13 58l-89 384a69 68 0 0 1-37 46l-358 171a69 68 0 0 1-33 7z m0-26a65 64 0 0 0 31-7l340-162a65 64 0 0 0 35-43l84-365a65 64 0 0 0-13-54l-235-292a65 64 0 0 0-50-25l-377 0a65 64 0 0 0-51 25l-235 292a65 64 0 0 0-3 5 65 64 0 0 0-9 49l84 364a65 64 0 0 0 35 44l339 162a65 64 0 0 0 25 7z m-175-474c0 38 30 68 68 68l88 0 0 42-88 0c-61 0-110-49-110-110 0-61 49-110 110-110l88 0 0 42-88 0c-38 0-68 30-68 68z m90-22l177 0 0 44-177 0z m199 132l-89 0 0-42 89 0c37 0 68-30 68-68 0-38-31-68-68-68l-89 0 0-42 89 0c61 0 110 49 110 110 0 61-49 110-110 110z" horiz-adv-x="1031" />

<glyph glyph-name="role" unicode="&#xe80d;" d="M512 850a69 68 0 0 1-26-7l-359-171a69 68 0 0 1-37-46l-88-385a69 68 0 0 1 9-52 69 68 0 0 1 4-5l248-308a69 68 0 0 1 54-26l397 0a69 68 0 0 1 54 26l248 308a69 68 0 0 1 13 58l-89 384a69 68 0 0 1-37 46l-358 171a69 68 0 0 1-33 7z m0-26a65 64 0 0 0 31-7l340-162a65 64 0 0 0 35-43l84-365a65 64 0 0 0-13-54l-235-292a65 64 0 0 0-50-25l-377 0a65 64 0 0 0-51 25l-235 292a65 64 0 0 0-3 5 65 64 0 0 0-9 49l84 364a65 64 0 0 0 35 44l339 162a65 64 0 0 0 25 7z m9-251l-177-78 0-117c0-109 76-210 177-235 102 25 178 126 178 235l0 117z m94-315l-188 0 0 158 27 0 0 17c0 37 31 68 68 68 38 0 68-31 68-68l0-17 25 0z m-94 218c-22-1-40-19-40-41l0-17 81 0 0 17c0 23-18 40-41 41z" horiz-adv-x="1031" />

<glyph glyph-name="secret" unicode="&#xe80e;" d="M512 850a69 68 0 0 1-26-7l-359-171a69 68 0 0 1-37-46l-88-385a69 68 0 0 1 9-52 69 68 0 0 1 4-5l248-308a69 68 0 0 1 54-26l397 0a69 68 0 0 1 54 26l248 308a69 68 0 0 1 13 58l-89 384a69 68 0 0 1-37 46l-358 171a69 68 0 0 1-33 7z m0-26a65 64 0 0 0 31-7l340-162a65 64 0 0 0 35-43l84-365a65 64 0 0 0-13-54l-235-292a65 64 0 0 0-50-25l-377 0a65 64 0 0 0-51 25l-235 292a65 64 0 0 0-3 5 65 64 0 0 0-9 49l84 364a65 64 0 0 0 35 44l339 162a65 64 0 0 0 25 7z m30-413l212 0m-333 120l333 0m-477 0l83 0m182-241l212 0m-333-121l333 0m-477 0l83 0" horiz-adv-x="1031" />

<glyph glyph-name="sts" unicode="&#xe80f;" d="M514 850a69 68 0 0 1-26-7l-359-171a69 68 0 0 1-37-46l-88-385a69 68 0 0 1 9-52 69 68 0 0 1 4-5l248-308a69 68 0 0 1 54-26l397 0a69 68 0 0 1 54 26l248 308a69 68 0 0 1 13 58l-89 384a69 68 0 0 1-37 46l-358 171a69 68 0 0 1-33 7z m0-26a65 64 0 0 0 31-7l340-162a65 64 0 0 0 35-43l84-365a65 64 0 0 0-13-54l-235-292a65 64 0 0 0-50-25l-377 0a65 64 0 0 0-51 25l-235 292a65 64 0 0 0-3 5 65 64 0 0 0-9 49l84 364a65 64 0 0 0 35 44l339 162a65 64 0 0 0 25 7z m-95-262l373 0 0-262-373 0z m-176-162l373 0 0-262-373 0z m0 0l373 0 0-262-373 0z m30-72l0 0c0 24 70 44 156 44 87 0 156-20 156-44l0 0c0-25-69-45-156-45-86 0-156 20-156 45z m312 0l0 0c0-25-69-45-156-45-86 0-156 20-156 45l0 0c0 24 70 44 156 44 87 0 156-20 156-44l0-121c0-24-69-44-156-44-86 0-156 20-156 44l0 121" horiz-adv-x="1031" />

<glyph glyph-name="pv" unicode="&#xe810;" d="M512 850a69 68 0 0 1-26-7l-359-171a69 68 0 0 1-37-46l-88-385a69 68 0 0 1 9-52 69 68 0 0 1 4-5l248-308a69 68 0 0 1 54-26l397 0a69 68 0 0 1 54 26l248 308a69 68 0 0 1 13 58l-89 384a69 68 0 0 1-37 46l-358 171a69 68 0 0 1-33 7z m0-26a65 64 0 0 0 31-7l340-162a65 64 0 0 0 35-43l84-365a65 64 0 0 0-13-54l-235-292a65 64 0 0 0-50-25l-377 0a65 64 0 0 0-51 25l-235 292a65 64 0 0 0-3 5 65 64 0 0 0-9 49l84 364a65 64 0 0 0 35 44l339 162a65 64 0 0 0 25 7z m-261-387l0 0c0-36 118-64 264-64 146 0 265 28 265 64l0-174c0-35-119-64-265-64-146 0-264 29-264 64z m0 0l0 0c0 35 118 64 264 64 146 0 265-29 265-64l0 0c0-36-119-64-265-64-146 0-264 28-264 64z" horiz-adv-x="1031" />

<glyph glyph-name="rs" unicode="&#xe811;" d="M512 850a69 68 0 0 1-26-7l-359-171a69 68 0 0 1-37-46l-88-385a69 68 0 0 1 9-52 69 68 0 0 1 4-5l248-308a69 68 0 0 1 54-26l397 0a69 68 0 0 1 54 26l248 308a69 68 0 0 1 13 58l-89 384a69 68 0 0 1-37 46l-358 171a69 68 0 0 1-33 7z m0-26a65 64 0 0 0 31-7l340-162a65 64 0 0 0 35-43l84-365a65 64 0 0 0-13-54l-235-292a65 64 0 0 0-50-25l-377 0a65 64 0 0 0-51 25l-235 292a65 64 0 0 0-3 5 65 64 0 0 0-9 49l84 364a65 64 0 0 0 35 44l339 162a65 64 0 0 0 25 7z m-271-424l373 0 0-262-373 0z m0 0l373 0 0-262-373 0z" horiz-adv-x="1031" />

<glyph glyph-name="svc" unicode="&#xe812;" d="M512 850a69 68 0 0 1-26-7l-359-171a69 68 0 0 1-37-46l-88-385a69 68 0 0 1 9-52 69 68 0 0 1 4-5l248-308a69 68 0 0 1 54-26l397 0a69 68 0 0 1 54 26l248 308a69 68 0 0 1 13 58l-89 384a69 68 0 0 1-37 46l-358 171a69 68 0 0 1-33 7z m0-26a65 64 0 0 0 31-7l340-162a65 64 0 0 0 35-43l84-365a65 64 0 0 0-13-54l-235-292a65 64 0 0 0-50-25l-377 0a65 64 0 0 0-51 25l-235 292a65 64 0 0 0-3 5 65 64 0 0 0-9 49l84 364a65 64 0 0 0 35 44l339 162a65 64 0 0 0 25 7z m-307-589l167 0 0-116-167 0z m227 0l166 0 0-116-166 0z m227 0l166 0 0-116-166 0z m-275 346l263 0 0-116-263 0z m131-116l0-115-226 0 0-114m226 229l0-115 227 0 0-114m-227 229l0-115 1 0 0-114" horiz-adv-x="1031" />

<glyph glyph-name="crd" unicode="&#xe813;" d="M512 850a69 68 0 0 1-26-7l-359-171a69 68 0 0 1-37-46l-88-385a69 68 0 0 1 9-52 69 68 0 0 1 4-5l248-308a69 68 0 0 1 54-26l397 0a69 68 0 0 1 54 26l248 308a69 68 0 0 1 13 58l-89 384a69 68 0 0 1-37 46l-358 171a69 68 0 0 1-33 7z m0-26a65 64 0 0 0 31-7l340-162a65 64 0 0 0 35-43l84-365a65 64 0 0 0-13-54l-235-292a65 64 0 0 0-50-25l-377 0a65 64 0 0 0-51 25l-235 292a65 64 0 0 0-3 5 65 64 0 0 0-9 49l84 364a65 64 0 0 0 35 44l339 162a65 64 0 0 0 25 7z m247-461l-40 0 0 106c0 29-24 53-53 53l-105 0 0 39c0 37-30 66-66 66-37 0-66-29-66-66l0-39-106 0c-29 0-52-24-52-53l0-100 39 0c39 0 71-32 71-72 0-39-32-71-71-71l-40 0 0-100c0-29 24-53 53-53l101 0 0 40c0 39 31 71 71 71 39 0 71-32 71-71l0-40 100 0c29 0 53 24 53 53l0 105 40 0c36 0 66 30 66 66 0 37-30 66-66 66z" horiz-adv-x="1031" />

<glyph glyph-name="group" unicode="&#xe814;" d="M512 850a69 68 0 0 1-26-7l-359-171a69 68 0 0 1-37-46l-88-385a69 68 0 0 1 9-52 69 68 0 0 1 4-5l248-308a69 68 0 0 1 54-26l397 0a69 68 0 0 1 54 26l248 308a69 68 0 0 1 13 58l-89 384a69 68 0 0 1-37 46l-358 171a69 68 0 0 1-33 7z m0-26a65 64 0 0 0 31-7l340-162a65 64 0 0 0 35-43l84-365a65 64 0 0 0-13-54l-235-292a65 64 0 0 0-50-25l-377 0a65 64 0 0 0-51 25l-235 292a65 64 0 0 0-3 5 65 64 0 0 0-9 49l84 364a65 64 0 0 0 35 44l339 162a65 64 0 0 0 25 7z m-216-217c-27 0-49-22-49-49l0-416c0-27 22-49 49-49l439 0c27 0 49 22 49 49l0 416c0 27-22 49-49 49z m148-132c29 0 53-24 53-53 0-30-24-54-53-54-30 0-54 24-54 54 0 29 24 53 54 53z m143 0c30 0 53-24 53-53 0-30-23-54-53-54-30 0-54 24-54 54 0 29 24 53 54 53z m-143-143c41 0 125-21 125-62l0-45-251 0 0 45c0 41 84 62 126 62z m143 0c42 0 125-21 125-62l0-45-107 0 0 45c0 26-15 46-35 61 6 1 12 1 17 1z" horiz-adv-x="1031" />

<glyph glyph-name="netpol" unicode="&#xe815;" d="M512 850a69 68 0 0 1-26-7l-359-171a69 68 0 0 1-37-46l-88-385a69 68 0 0 1 9-52 69 68 0 0 1 4-5l248-308a69 68 0 0 1 54-26l397 0a69 68 0 0 1 54 26l248 308a69 68 0 0 1 13 58l-89 384a69 68 0 0 1-37 46l-358 171a69 68 0 0 1-33 7z m0-26a65 64 0 0 0 31-7l340-162a65 64 0 0 0 35-43l84-365a65 64 0 0 0-13-54l-235-292a65 64 0 0 0-50-25l-377 0a65 64 0 0 0-51 25l-235 292a65 64 0 0 0-3 5 65 64 0 0 0-9 49l84 364a65 64 0 0 0 35 44l339 162a65 64 0 0 0 25 7z m-26-213c-133 0-240-107-240-239 0-132 107-240 240-240 29 0 57 6 84 16l0 56c0 19 15 52 35 52l0 52c0 26 39 71 87 71 12 0 23-3 33-7 0 132-107 239-239 239z m47-83l84-84-60 0 0-96-47 0 0 96-60 0z m-119-132l48 0 0-96 59 0-83-84-84 84 60 0z m284-60c-34 0-62-27-62-62l0-37c-14 0-25-11-25-24l0-100c0-13 11-24 25-24l124 0c13 0 25 11 25 24l0 100c0 13-12 24-25 24l0 37c0 35-28 62-62 62z m0-24c20 0 37-17 37-38l0-37-74 0 0 37c0 21 16 38 37 38z" horiz-adv-x="1031" />

<glyph glyph-name="cronjob" unicode="&#xe816;" d="M512 850a69 68 0 0 1-26-7l-359-171a69 68 0 0 1-37-46l-88-385a69 68 0 0 1 9-52 69 68 0 0 1 4-5l248-308a69 68 0 0 1 54-26l397 0a69 68 0 0 1 54 26l248 308a69 68 0 0 1 13 58l-89 384a69 68 0 0 1-37 46l-358 171a69 68 0 0 1-33 7z m0-26a65 64 0 0 0 31-7l340-162a65 64 0 0 0 35-43l84-365a65 64 0 0 0-13-54l-235-292a65 64 0 0 0-50-25l-377 0a65 64 0 0 0-51 25l-235 292a65 64 0 0 0-3 5 65 64 0 0 0-9 49l84 364a65 64 0 0 0 35 44l339 162a65 64 0 0 0 25 7z m65-177l0-123 126 0 0 123z m0-177l0-31c15 4 30 6 46 6 29 0 56-6 80-17l0 42z m-359-2l0-122 126 0 0 122z m180 0l0-122 53 0c18 30 43 55 73 72l0 50z m-181-178l0-122 126 0 0 122z m180 0l0-122 41 0c-10 23-16 49-16 76 0 16 3 31 6 46z m234 129c-101 0-183-82-183-183 0-100 82-182 183-182 100 0 183 82 183 182 0 101-83 183-183 183z m77-259l-96 58 0 110 28 0 0-95 82-50z" horiz-adv-x="1031" />

<glyph glyph-name="hpa" unicode="&#xe817;" d="M512 850a69 68 0 0 1-26-7l-359-171a69 68 0 0 1-37-46l-88-385a69 68 0 0 1 9-52 69 68 0 0 1 4-5l248-308a69 68 0 0 1 54-26l397 0a69 68 0 0 1 54 26l248 308a69 68 0 0 1 13 58l-89 384a69 68 0 0 1-37 46l-358 171a69 68 0 0 1-33 7z m0-26a65 64 0 0 0 31-7l340-162a65 64 0 0 0 35-43l84-365a65 64 0 0 0-13-54l-235-292a65 64 0 0 0-50-25l-377 0a65 64 0 0 0-51 25l-235 292a65 64 0 0 0-3 5 65 64 0 0 0-9 49l84 364a65 64 0 0 0 35 44l339 162a65 64 0 0 0 25 7z m-398-474l118 114 0-57 44 0 0 172 479 0 0-172 43 0 0 57 119-114-119-114 0 57-43 0 0-172-479 0 0 172-44 0 0-57z" horiz-adv-x="1031" />

<glyph glyph-name="ns" unicode="&#xe818;" d="M512 850a69 68 0 0 1-26-7l-359-171a69 68 0 0 1-37-46l-88-385a69 68 0 0 1 9-52 69 68 0 0 1 4-5l248-308a69 68 0 0 1 54-26l397 0a69 68 0 0 1 54 26l248 308a69 68 0 0 1 13 58l-89 384a69 68 0 0 1-37 46l-358 171a69 68 0 0 1-33 7z m0-26a65 64 0 0 0 31-7l340-162a65 64 0 0 0 35-43l84-365a65 64 0 0 0-13-54l-235-292a65 64 0 0 0-50-25l-377 0a65 64 0 0 0-51 25l-235 292a65 64 0 0 0-3 5 65 64 0 0 0-9 49l84 364a65 64 0 0 0 35 44l339 162a65 64 0 0 0 25 7z" horiz-adv-x="1031" />

<glyph glyph-name="pvc" unicode="&#xe819;" d="M512 850a69 68 0 0 1-26-7l-359-171a69 68 0 0 1-37-46l-88-385a69 68 0 0 1 9-52 69 68 0 0 1 4-5l248-308a69 68 0 0 1 54-26l397 0a69 68 0 0 1 54 26l248 308a69 68 0 0 1 13 58l-89 384a69 68 0 0 1-37 46l-358 171a69 68 0 0 1-33 7z m0-26a65 64 0 0 0 31-7l340-162a65 64 0 0 0 35-43l84-365a65 64 0 0 0-13-54l-235-292a65 64 0 0 0-50-25l-377 0a65 64 0 0 0-51 25l-235 292a65 64 0 0 0-3 5 65 64 0 0 0-9 49l84 364a65 64 0 0 0 35 44l339 162a65 64 0 0 0 25 7z m268-387l0 0c0-36-119-64-265-64-146 0-264 28-264 64l0 0c0 35 118 64 264 64 146 0 265-29 265-64l0-174c0-35-119-64-265-64-146 0-264 29-264 64l0 174" horiz-adv-x="1031" />

<glyph glyph-name="sa" unicode="&#xe81a;" d="M512 850a69 68 0 0 1-26-7l-359-171a69 68 0 0 1-37-46l-88-385a69 68 0 0 1 9-52 69 68 0 0 1 4-5l248-308a69 68 0 0 1 54-26l397 0a69 68 0 0 1 54 26l248 308a69 68 0 0 1 13 58l-89 384a69 68 0 0 1-37 46l-358 171a69 68 0 0 1-33 7z m0-26a65 64 0 0 0 31-7l340-162a65 64 0 0 0 35-43l84-365a65 64 0 0 0-13-54l-235-292a65 64 0 0 0-50-25l-377 0a65 64 0 0 0-51 25l-235 292a65 64 0 0 0-3 5 65 64 0 0 0-9 49l84 364a65 64 0 0 0 35 44l339 162a65 64 0 0 0 25 7z m3-192l-231-102 0-154c0-143 99-276 231-308 133 32 231 165 231 308l0 154z m0-108c30 0 57-18 69-46 11-28 5-59-16-81-22-21-53-27-81-16-28 12-46 39-46 69 0 41 34 74 74 74z m139-306c0-2-1-4-2-5-1-3-3-5-5-8-32-45-79-78-132-94-53 16-99 49-131 94-2 3-4 5-6 8-1 1-1 3-1 5l0 41c0 57 92 85 138 85 47 0 139-28 139-85z" horiz-adv-x="1031" />

<glyph glyph-name="user" unicode="&#xe81b;" d="M512 850a69 68 0 0 1-26-7l-359-171a69 68 0 0 1-37-46l-88-385a69 68 0 0 1 9-52 69 68 0 0 1 4-5l248-308a69 68 0 0 1 54-26l397 0a69 68 0 0 1 54 26l248 308a69 68 0 0 1 13 58l-89 384a69 68 0 0 1-37 46l-358 171a69 68 0 0 1-33 7z m0-26a65 64 0 0 0 31-7l340-162a65 64 0 0 0 35-43l84-365a65 64 0 0 0-13-54l-235-292a65 64 0 0 0-50-25l-377 0a65 64 0 0 0-51 25l-235 292a65 64 0 0 0-3 5 65 64 0 0 0-9 49l84 364a65 64 0 0 0 35 44l339 162a65 64 0 0 0 25 7z m-216-217c-27 0-49-22-49-49l0-416c0-27 22-49 49-49l439 0c27 0 49 22 49 49l0 416c0 27-22 49-49 49z m219-81c42 0 75-34 75-75 0-42-33-76-75-76-41 0-75 34-75 76 0 41 34 75 75 75z m0-201c59 0 176-29 176-88l0-63-352 0 0 63c0 59 118 88 176 88z" horiz-adv-x="1031" />

<glyph glyph-name="quota" unicode="&#xe81c;" d="M512 850a69 68 0 0 1-26-7l-359-171a69 68 0 0 1-37-46l-88-385a69 68 0 0 1 9-52 69 68 0 0 1 4-5l248-308a69 68 0 0 1 54-26l397 0a69 68 0 0 1 54 26l248 308a69 68 0 0 1 13 58l-89 384a69 68 0 0 1-37 46l-358 171a69 68 0 0 1-33 7z m0-26a65 64 0 0 0 31-7l340-162a65 64 0 0 0 35-43l84-365a65 64 0 0 0-13-54l-235-292a65 64 0 0 0-50-25l-377 0a65 64 0 0 0-51 25l-235 292a65 64 0 0 0-3 5 65 64 0 0 0-9 49l84 364a65 64 0 0 0 35 44l339 162a65 64 0 0 0 25 7z m-119-153c-1 0-18-7-39-15-21-8-39-15-40-15-1 0-2-1-2-1 0-1 4-12 9-25 5-14 9-25 9-26 0 0-4-3-14-6-8-3-14-6-14-6 1-1 95-43 97-43 1 0 5 10 22 48 12 26 22 48 22 48 0 1-1 1-1 1-12-4-28-10-29-10 0 0-5 11-10 25-6 16-10 25-10 25z m122-127c-126 0-237-80-277-200-14-44-18-93-10-140 11-65 44-125 94-170 3-3 6-5 6-5 0 0 13 14 30 30 16 16 29 30 30 31 2 5-2 13-9 20-8 8-15 11-20 10-2-1-8-6-16-15-8-8-15-14-15-14-2 0-9 9-16 20-18 25-31 53-38 83-2 10-6 29-5 30 0 1 5 1 21 1 23 0 24 0 27 4 3 3 4 9 5 16 0 8-1 14-4 19-3 5-3 5-27 5-12 0-22 0-22 0-1 1-1 2 0 11 4 39 18 78 39 110 5 7 14 18 15 18 0 0 8-7 18-17l17-17 4 0c10 1 23 13 26 24 0 2 0 4 0 5 0 2-5 7-17 20-16 15-18 17-17 18 3 4 21 17 33 24 30 18 70 32 101 34l5 1 0-26 1-25 2-3c8-7 30-8 38 0l3 2 0 25 0 26 5 0c7 0 22-3 34-6 35-9 67-25 94-47 4-2 7-5 7-6 0 0-8-9-17-18l-17-17 0-4c0-11 15-26 26-27l4 0 17 17c10 10 18 17 18 17 0 0 3-3 6-7 23-30 39-68 46-105 2-12 3-25 2-26 0-1-5-1-23-1l-22 0-2-2c-4-4-7-15-6-23 0-7 2-13 5-16l3-3 22 0c22 0 23 0 23-1 0-3-3-16-5-26-7-31-21-63-39-88-8-11-14-19-15-19-1 0-7 6-15 14-15 16-16 16-22 14-11-3-22-16-23-26l-1-3 26-27c34-34 34-34 36-33 2 1 18 17 25 25 20 21 35 43 48 68 31 62 38 134 21 202-14 56-46 108-90 147-54 47-122 72-193 72z m-55-120c-11 0-24-7-28-15-1-2-1-3-1-5 1-2 13-32 27-69l25-66-2-5c-7-15-5-32 7-44 11-10 26-14 40-9 2 1 7 3 9 5 18 12 22 38 8 55-5 6-10 9-19 13-2 1-5 8-28 68-14 37-26 67-27 68-2 3-5 4-11 4z m-141-386c-12 10-34 37-46 54-20 29-36 70-44 108-5 27-5 82 1 110 24 111 105 196 213 224 81 21 165 6 235-41 22-14 59-50 73-70 55-79 69-174 40-263-14-41-36-76-67-109l-21-21-29 30c-18 17-30 31-30 33 0 10 16 26 25 26 2 0 10-7 18-15 18-16 16-17 33 7 21 31 36 68 42 106l1 9-23 0-24 0-3 6c-4 7-3 28 1 33 2 2 7 3 26 3l23 0 0 8c0 20-12 62-25 88-7 13-27 45-29 45-1 0-10-8-19-17-16-16-18-18-23-17-8 3-21 15-22 23-1 5 0 7 16 24 19 21 20 19-4 35-31 21-75 39-107 42l-13 1-1-26c-1-18-2-26-4-28-4-5-21-6-30-2l-7 3 0 26 0 27-8 0c-20 0-67-15-91-29-15-9-43-28-43-30 0-1 8-10 18-20 15-16 17-18 15-23-1-7-14-20-22-22-5-1-7 0-23 16-10 10-18 17-20 16-3-2-21-29-28-43-13-26-29-85-25-94 0-3 6-3 23-3 24 0 27-1 29-12 1-4 1-11 0-16-2-13-6-14-31-14-24 0-23 1-17-25 8-37 26-75 51-106l4-5 16 14c9 9 18 15 20 15 6 0 19-13 23-20 2-6 2-7-8-18-6-6-19-21-30-31l-20-20-9 8z" horiz-adv-x="1031" />

<glyph glyph-name="sc" unicode="&#xe81d;" d="M512 850a69 68 0 0 1-26-7l-359-171a69 68 0 0 1-37-46l-88-385a69 68 0 0 1 9-52 69 68 0 0 1 4-5l248-308a69 68 0 0 1 54-26l397 0a69 68 0 0 1 54 26l248 308a69 68 0 0 1 13 58l-89 384a69 68 0 0 1-37 46l-358 171a69 68 0 0 1-33 7z m0-26a65 64 0 0 0 31-7l340-162a65 64 0 0 0 35-43l84-365a65 64 0 0 0-13-54l-235-292a65 64 0 0 0-50-25l-377 0a65 64 0 0 0-51 25l-235 292a65 64 0 0 0-3 5 65 64 0 0 0-9 49l84 364a65 64 0 0 0 35 44l339 162a65 64 0 0 0 25 7z m-259-399l0 0c0-21 120-39 268-39 149 0 269 18 269 39l0-105c0-22-120-39-269-39-148 0-268 17-268 39z m531-171l0 0c0-22-120-39-269-39-148 0-268 17-268 39l0 0c0 21 120 39 268 39 149 0 269-18 269-39l0-106c0-21-120-39-269-39-148 0-268 18-268 39l0 106m537 172l0 0c0-21-120-39-269-39-148 0-268 18-268 39l0 0c0 22 120 39 268 39 149 0 269-17 269-39l0-105c0-22-120-39-269-39-148 0-268 17-268 39l0 105m537 126l0 0c0-22-120-39-269-39-148 0-268 17-268 39l0 0c0 21 120 39 268 39 149 0 269-18 269-39l0-106c0-21-120-39-269-39-148 0-268 18-268 39l0 106" horiz-adv-x="1031" />

<glyph glyph-name="vol" unicode="&#xe81e;" d="M512 850a69 68 0 0 1-26-7l-359-171a69 68 0 0 1-37-46l-88-385a69 68 0 0 1 9-52 69 68 0 0 1 4-5l248-308a69 68 0 0 1 54-26l397 0a69 68 0 0 1 54 26l248 308a69 68 0 0 1 13 58l-89 384a69 68 0 0 1-37 46l-358 171a69 68 0 0 1-33 7z m0-26a65 64 0 0 0 31-7l340-162a65 64 0 0 0 35-43l84-365a65 64 0 0 0-13-54l-235-292a65 64 0 0 0-50-25l-377 0a65 64 0 0 0-51 25l-235 292a65 64 0 0 0-3 5 65 64 0 0 0-9 49l84 364a65 64 0 0 0 35 44l339 162a65 64 0 0 0 25 7z m-261-387l0 0c0-36 118-64 264-64 146 0 265 28 265 64l0-174c0-35-119-64-265-64-146 0-264 29-264 64z m0 0l0 0c0 35 118 64 264 64 146 0 265-29 265-64l0 0c0-36-119-64-265-64-146 0-264 28-264 64z" horiz-adv-x="1031" />
</font>
</defs>
</svg>
